<?xml version="1.0" encoding="UTF-8"?>
<svg xmlns="http://www.w3.org/2000/svg" xmlns:xlink="http://www.w3.org/1999/xlink" width="40px" height="40px" viewBox="0 0 40 40" version="1.1">
    <g id="surface1">
        <path style=" stroke:none;fill-rule:nonzero;fill:rgb(0%,0%,0%);fill-opacity:1;" d="M 18.734375 3.707031 C 18.605469 3.71875 18.214844 3.765625 17.867188 3.808594 C 14.171875 4.226562 10.527344 6.191406 8.121094 9.066406 C 5.046875 12.734375 3.859375 17.480469 4.839844 22.160156 C 5.300781 24.339844 6.394531 26.640625 7.867188 28.5 C 8.792969 29.671875 10.378906 31.066406 11.738281 31.914062 C 12.386719 32.320312 13.679688 32.953125 14.425781 33.226562 C 15.28125 33.546875 16.632812 33.886719 17.632812 34.039062 C 18.613281 34.179688 20.671875 34.199219 21.601562 34.074219 C 25.09375 33.59375 28.054688 32.148438 30.472656 29.738281 C 31.421875 28.792969 31.859375 28.261719 32.539062 27.21875 C 33.699219 25.445312 34.5 23.320312 34.847656 21.121094 C 35.007812 20.066406 35.007812 17.792969 34.839844 16.734375 C 34.425781 14.046875 33.347656 11.554688 31.6875 9.441406 C 31.125 8.734375 29.714844 7.351562 29 6.820312 C 26.847656 5.207031 24.507812 4.21875 21.933594 3.832031 C 21.253906 3.734375 19.199219 3.652344 18.734375 3.707031 Z M 21.414062 9.167969 C 22.613281 9.378906 23.699219 9.792969 24.578125 10.378906 C 25.980469 11.300781 26.964844 12.8125 27.292969 14.519531 L 27.386719 15 L 25.625 15 C 24.171875 15 23.867188 14.988281 23.867188 14.90625 C 23.867188 14.859375 23.746094 14.574219 23.601562 14.28125 C 23.132812 13.347656 22.1875 12.632812 21.019531 12.328125 C 20.292969 12.132812 19.039062 12.132812 18.3125 12.328125 C 16.339844 12.847656 15.085938 14.472656 14.726562 16.988281 C 14.601562 17.894531 14.679688 19.625 14.886719 20.414062 C 15.578125 23.039062 17.386719 24.605469 19.726562 24.605469 C 20.535156 24.605469 21.140625 24.472656 21.832031 24.132812 C 23.171875 23.480469 24.039062 22.347656 24.234375 20.980469 L 24.28125 20.667969 L 20.199219 20.667969 L 20.199219 17.601562 L 27.398438 17.601562 L 27.398438 27.265625 L 26.285156 27.253906 L 25.167969 27.234375 L 25.019531 26.433594 C 24.933594 25.992188 24.832031 25.472656 24.792969 25.28125 L 24.71875 24.925781 L 24.398438 25.347656 C 23.488281 26.558594 22.234375 27.359375 20.800781 27.648438 C 20.035156 27.800781 18.527344 27.78125 17.679688 27.605469 C 14.367188 26.921875 11.945312 24.351562 11.199219 20.746094 C 10.808594 18.875 10.914062 16.714844 11.480469 14.933594 C 12.546875 11.558594 15.152344 9.433594 18.667969 9.066406 C 19.375 8.992188 20.699219 9.039062 21.414062 9.167969 Z M 21.414062 9.167969 "/>
    </g>
</svg>
